<svg width="357" height="149" xmlns="http://www.w3.org/2000/svg"><g fill="none"><path d="M42.179 148.664c-23.214 0-42.18-19.618-42.18-43.977C0 80.328 18.966 60.383 42.18 60.383c18.8 0 33.514 11.117 39.236 28.119H66.538c-4.741-9.154-13.405-15.367-24.36-15.367-15.53 0-28.282 14.223-28.282 31.552 0 17.33 12.752 31.225 28.283 31.225 11.117 0 19.78-6.212 24.359-15.367h14.877c-5.56 17.002-20.436 28.119-39.236 28.119m102.51-47.247c-5.559 4.905-15.531 6.049-25.503 6.703-18.31 1.145-22.397 7.52-22.397 14.55 0 9.155 8.827 13.079 19.617 13.079 14.387 0 27.956-6.213 28.283-21.416v-12.916zm.163 35.64c-6.049 7.356-15.857 11.607-28.936 11.607-17.33 0-32.86-7.848-32.86-25.994 0-17.33 12.588-25.176 34.331-26.32 20.599-.982 27.302-4.742 27.302-11.445 0-6.702-6.376-11.77-20.599-11.77-8.828 0-20.435 2.779-21.907 15.04H87.797c.981-16.84 14.877-27.792 36.456-27.792 22.561 0 34.005 10.463 34.005 26.157v46.43c0 4.25 1.144 10.463 2.452 13.732h-13.732c-1.145-2.452-1.962-5.722-2.126-9.645zM207.65 74.28c-14.55-.818-26.975 6.865-26.975 23.704v48.718H166.78V62.508h13.405v9.482c6.376-8.99 17.82-12.588 27.465-11.443V74.28zm65.545 21.579c-3.434-13.732-14.877-22.888-27.139-22.888-11.606 0-23.868 8.501-27.465 22.888h54.604zm13.405 24.686c-5.884 17.983-20.27 28.12-39.726 28.12-24.196-.001-43.159-19.293-43.159-43.979 0-24.358 18.963-44.302 42.341-44.302 21.744 0 42.67 17.982 42.506 47.9h-70.788c1.8 17.492 15.204 27.792 29.1 27.792 11.934 0 20.435-5.723 25.013-15.53H286.6v-.001z" fill="#010202"/><path d="M356.22 128.736v15.933h-62.305v-7.643c0-20.207 13.342-29.922 27.073-37.305 16.71-8.937 18.393-13.083 18.393-18.393 0-5.959-3.757-11.14-12.823-11.14-8.94 0-14.25 6.865-14.25 16.062h-17.227c0-16.45 10.75-31.865 31.347-31.865 20.725 0 30.052 13.99 30.052 27.072 0 16.968-11.53 23.575-26.944 31.995-9.067 4.922-16.061 9.844-16.58 15.284h43.264zM281.084 10.645a1.534 1.534 0 0 1-2.057-.697 1.51 1.51 0 0 1 .686-2.04 1.528 1.528 0 0 1 2.062.67c.379.767.075 1.69-.691 2.067zm-3.432 8.888a2.194 2.194 0 0 1-2.933-.995 2.185 2.185 0 0 1 .994-2.926 2.184 2.184 0 0 1 3.05 2.657 2.19 2.19 0 0 1-1.111 1.264zm-2.326 10.723c-1.541.77-3.43.147-4.191-1.405a3.122 3.122 0 0 1 1.406-4.192 3.131 3.131 0 0 1 4.199 1.406 3.123 3.123 0 0 1-1.414 4.19v.001zM257.58 42.82c-.937.426-2.692-.17-3.91-1.336-1.199-1.16-1.42-2.446-.469-2.864.948-.431 2.7.17 3.919 1.33 1.213 1.164 1.417 2.456.46 2.87zm-11.512-6.917c-.667.285-1.878-.19-2.708-1.03-.808-.837-.928-1.743-.258-2.02.676-.27 1.888.192 2.709 1.028.812.837.942 1.75.257 2.022zm-10.617-5.84c-.463.207-1.322-.106-1.913-.693-.572-.564-.669-1.203-.191-1.408.471-.188 1.317.105 1.894.686.595.587.681 1.213.21 1.415zm53.553-.621c2.32-1.285 2.353-1.712 2.32-4.121-.046-3.352-3.353-11.347-3.353-11.347.557-2.638-.884-3.852-.622-5.141.256-1.29-.152-8.262-3.244-8.781-3.095-.517-7.22 2.835-12.378 12.627-3.756 7.142-6.471 19.05-7.666 24.99l-.299-.797a2.26 2.26 0 0 0-1.051-.188 1.58 1.58 0 0 0-.049-1.407c-.327-.594-.997-.881-1.657-.777-.829-2.083-1.941-6.663.369-10.825.551-.54 1.489-1.531.789-1.903-.677-.323-.967.885-1.097 1.66-2.411 4.31-1.272 9.032-.426 11.19l-.319.17c-.947-2.003-3.173-5.726-8.025-6.78-.647-.417-1.756-.992-1.946-.268-.209.767 1.18.73 1.927.653 4.712 1.053 6.846 4.739 7.731 6.653-.429.496-.555 1.208-.235 1.804.243.449.68.728 1.155.797a2.39 2.39 0 0 0-.406.987l.242.336c-9.397-7.561-26.891-14.927-34.149-17.267-7.988-2.582-7.47 1.807-6.701 3.868.777 2.057 7.736 6.984 9.537 8.276 1.815 1.288 12.119 13.89 13.408 14.919 1.284 1.035 4.381 1.035 4.381 1.035-.773 4.127 1.807 7.736 3.354 10.057 1.545 2.315 19.849 17.01 20.109 6.702.254-10.315-5.92-21.831-5.92-21.831.119.145.256.28.383.423.625 1.063 1.307 1.942 1.809 2.683.068.712.449 1.803 1.076 2.94.978 1.802 2.187 3.034 2.699 2.759.512-.285.135-1.971-.85-3.765-.156-.29-.32-.565-.484-.823 6.934 4.98 16.697 8.182 18.957 8.386 2.836.262 3.524-3.075 3.524-3.075 7.986-7.986 4.835-16.311 4.064-19.404-.773-3.094-6.957-5.415-6.957-5.415zm-28.654 5.28l.214-.115c-.033.02-.068.03-.117.059-.037.019-.072.043-.097.057v-.001z" fill="#00AC68"/></g></svg>